<?xml version="1.0" encoding="UTF-8"?>
<svg width="60px" height="60px" viewBox="0 0 60 60" version="1.1" xmlns="http://www.w3.org/2000/svg" xmlns:xlink="http://www.w3.org/1999/xlink">
    <!-- Generator: Sketch 54.1 (76490) - https://sketchapp.com -->
    <title>flogo-HexRBG-Wht-512</title>
    <desc>Created with Sketch.</desc>
    <g id="Page-1" stroke="none" stroke-width="1" fill="none" fill-rule="evenodd">
        <g id="M-Landing" transform="translate(-240.000000, -2522.000000)" fill="#FFFFFF" fill-rule="nonzero">
            <g id="Group-8" transform="translate(74.000000, 2522.000000)">
                <g id="flogo-HexRBG-Wht-512" transform="translate(166.000000, 0.000000)">
                    <path d="M56.6882813,0 L3.31171875,0 C1.48270699,-1.1199467e-16 2.2398934e-16,1.48270699 0,3.31171875 L0,56.6882813 C2.2398934e-16,58.517293 1.48270699,60 3.31171875,60 L32.0507812,60 L32.0507812,36.796875 L24.2578125,36.796875 L24.2578125,27.7148438 L32.0507812,27.7148438 L32.0507812,21.0351562 C32.0507812,13.2855469 36.7839844,9.065625 43.696875,9.065625 C47.0074219,9.065625 49.8539063,9.31289062 50.6835938,9.4171875 L50.6835938,17.5195312 L45.9011719,17.5195312 C42.1511719,17.5195312 41.4257812,19.3054688 41.4257812,21.928125 L41.4257812,27.7148438 L50.41875,27.7148438 L49.246875,36.796875 L41.4257812,36.796875 L41.4257812,60 L56.6882813,60 C58.517293,60 60,58.517293 60,56.6882813 L60,3.31171875 C60,1.48270699 58.517293,1.1199467e-16 56.6882813,0 Z" id="Path"></path>
                </g>
            </g>
        </g>
    </g>
</svg>