<?xml version="1.0" encoding="UTF-8"?>
<svg width="60px" height="60px" viewBox="0 0 60 60" version="1.1" xmlns="http://www.w3.org/2000/svg" xmlns:xlink="http://www.w3.org/1999/xlink">
    <!-- Generator: Sketch 54.1 (76490) - https://sketchapp.com -->
    <title>Combined Shape Copy</title>
    <desc>Created with Sketch.</desc>
    <g id="Page-1" stroke="none" stroke-width="1" fill="none" fill-rule="evenodd">
        <g id="M-Landing" transform="translate(-157.000000, -2522.000000)" fill="#FFFFFF">
            <g id="Group-8" transform="translate(74.000000, 2522.000000)">
                <path d="M113.00006,5.68434189e-14 C121.147511,5.68434189e-14 122.169143,0.0345347044 125.368962,0.180533144 C128.562112,0.326174329 130.742919,0.833358143 132.65114,1.57502069 C134.623905,2.34157204 136.296933,3.36737185 137.96484,5.0351599 C139.632628,6.70306704 140.658428,8.37609484 141.425098,10.3488601 C142.166642,12.2570811 142.673826,14.4378881 142.819467,17.6310384 C142.965465,20.8308574 143,21.8524892 143,30.0000595 C143,38.1475108 142.965465,39.1691426 142.819467,42.3689616 C142.673826,45.5621119 142.166642,47.7429189 141.425098,49.6511399 C140.658428,51.6239052 139.632628,53.296933 137.96484,54.9648401 C136.296933,56.6326282 134.623905,57.658428 132.65114,58.4250984 C130.742919,59.1666419 128.562112,59.6738257 125.368962,59.8194669 C122.169143,59.9654653 121.147511,60 113.00006,60 C104.852489,60 103.830857,59.9654653 100.631038,59.8194669 C97.4378881,59.6738257 95.2570811,59.1666419 93.3488601,58.4250984 C91.3760948,57.658428 89.703067,56.6326282 88.0351599,54.9648401 C86.3673718,53.296933 85.341572,51.6239052 84.5750207,49.6511399 C83.8333581,47.7429189 83.3261743,45.5621119 83.1805331,42.3689616 C83.0345347,39.1691426 83,38.1475108 83,30.0000595 C83,21.8524892 83.0345347,20.8308574 83.1805331,17.6310384 C83.3261743,14.4378881 83.8333581,12.2570811 84.5750207,10.3488601 C85.341572,8.37609484 86.3673718,6.70306704 88.0351599,5.0351599 C89.703067,3.36737185 91.3760948,2.34157204 93.3488601,1.57502069 C95.2570811,0.833358143 97.4378881,0.326174329 100.631038,0.180533144 C103.830857,0.0345347044 104.852489,5.68434189e-14 113.00006,5.68434189e-14 Z M113.00006,5.40539575 C104.989675,5.40539575 104.040805,5.43600064 100.877426,5.58033189 C97.9524552,5.7137073 96.3639779,6.20243291 95.3068587,6.61327681 C93.906536,7.15749611 92.9071731,7.80758215 91.8574372,8.85743717 C90.8075822,9.9071731 90.1574961,10.906536 89.6132768,12.3068587 C89.2024329,13.3639779 88.7137073,14.9524552 88.5803319,17.8774256 C88.4360006,21.0408045 88.4053957,21.9896753 88.4053957,30.0000595 C88.4053957,38.0103247 88.4360006,38.9591955 88.5803319,42.1225744 C88.7137073,45.0475448 89.2024329,46.6360221 89.6132768,47.6931413 C90.1574961,49.093464 90.8077012,50.0928269 91.8574372,51.1425628 C92.9071731,52.1924178 93.906536,52.8425039 95.3068587,53.3867232 C96.3639779,53.7975671 97.9524552,54.2862927 100.877426,54.4196681 C104.040447,54.5639994 104.98908,54.5946043 113.00006,54.5946043 C121.01092,54.5946043 121.959672,54.5639994 125.122574,54.4196681 C128.047545,54.2862927 129.636022,53.7975671 130.693141,53.3867232 C132.093464,52.8425039 133.092827,52.1924178 134.142563,51.1425628 C135.192418,50.0928269 135.842504,49.093464 136.386723,47.6931413 C136.797567,46.6360221 137.286293,45.0475448 137.419668,42.1225744 C137.563999,38.9591955 137.594604,38.0103247 137.594604,30.0000595 C137.594604,21.9896753 137.563999,21.0408045 137.419668,17.8774256 C137.286293,14.9524552 136.797567,13.3639779 136.386723,12.3068587 C135.842504,10.906536 135.192418,9.9071731 134.142563,8.85743717 C133.092827,7.80758215 132.093464,7.15749611 130.693141,6.61327681 C129.636022,6.20243291 128.047545,5.7137073 125.122574,5.58033189 C121.959195,5.43600064 121.010325,5.40539575 113.00006,5.40539575 Z M113.00006,40 C118.522873,40 123,35.5228733 123,30.0000595 C123,24.4771267 118.522873,20 113.00006,20 C107.477127,20 103,24.4771267 103,30.0000595 C103,35.5228733 107.477127,40 113.00006,40 Z M113.00006,14.5946043 C121.50822,14.5946043 128.405396,21.4917801 128.405396,30.0000595 C128.405396,38.5082199 121.50822,45.4053957 113.00006,45.4053957 C104.49178,45.4053957 97.5946043,38.5082199 97.5946043,30.0000595 C97.5946043,21.4917801 104.49178,14.5946043 113.00006,14.5946043 Z M132.614104,13.9859599 C132.614104,15.9742061 131.002286,17.5859051 129.01404,17.5859051 C127.025913,17.5859051 125.414095,15.9742061 125.414095,13.9859599 C125.414095,11.9977136 127.025913,10.3858956 129.01404,10.3858956 C131.002286,10.3858956 132.614104,11.9977136 132.614104,13.9859599 Z" id="Combined-Shape-Copy"></path>
            </g>
        </g>
    </g>
</svg>