<?xml version="1.0" encoding="UTF-8"?>
<svg width="60px" height="60px" viewBox="0 0 60 60" version="1.1" xmlns="http://www.w3.org/2000/svg" xmlns:xlink="http://www.w3.org/1999/xlink">
    <!-- Generator: Sketch 54.1 (76490) - https://sketchapp.com -->
    <title>twi</title>
    <desc>Created with Sketch.</desc>
    <g id="Page-1" stroke="none" stroke-width="1" fill="none" fill-rule="evenodd">
        <g id="twi" fill="#FFFFFF" fill-rule="nonzero">
            <path d="M52.5,60 L7.5,60 C3.36,60 0,56.64 0,52.5 L0,7.5 C0,3.36 3.36,0 7.5,0 L52.5,0 C56.64,0 60,3.36 60,7.5 L60,52.5 C60,56.64 56.64,60 52.5,60 Z M23.04,45.24 C37.185,45.24 44.925,33.51 44.925,23.355 C44.925,23.025 44.925,22.695 44.91,22.365 C46.41,21.285 47.715,19.92 48.75,18.375 C47.37,18.99 45.885,19.395 44.325,19.59 C45.915,18.645 47.13,17.13 47.715,15.33 C46.23,16.215 44.58,16.845 42.825,17.19 C41.415,15.69 39.42,14.76 37.215,14.76 C32.97,14.76 29.52,18.21 29.52,22.455 C29.52,23.055 29.595,23.64 29.715,24.21 C23.325,23.895 17.655,20.82 13.86,16.17 C13.2,17.31 12.825,18.63 12.825,20.04 C12.825,22.71 14.19,25.065 16.245,26.445 C14.985,26.4 13.8,26.055 12.765,25.485 C12.765,25.515 12.765,25.545 12.765,25.59 C12.765,29.31 15.42,32.43 18.93,33.135 C18.285,33.315 17.61,33.405 16.905,33.405 C16.41,33.405 15.93,33.36 15.465,33.27 C16.44,36.33 19.29,38.55 22.65,38.61 C20.01,40.68 16.695,41.91 13.095,41.91 C12.48,41.91 11.865,41.88 11.265,41.805 C14.655,43.965 18.705,45.24 23.04,45.24 Z" id="Combined-Shape"></path>
        </g>
    </g>
</svg>