<?xml version="1.0" encoding="UTF-8"?>
<svg width="60px" height="60px" viewBox="0 0 60 60" version="1.1" xmlns="http://www.w3.org/2000/svg" xmlns:xlink="http://www.w3.org/1999/xlink">
    <!-- Generator: Sketch 54.1 (76490) - https://sketchapp.com -->
    <title>VK_Monochrome_Logo</title>
    <desc>Created with Sketch.</desc>
    <g id="Page-1" stroke="none" stroke-width="1" fill="none" fill-rule="evenodd">
        <g id="M-Landing" transform="translate(-74.000000, -2522.000000)" fill="#FFFFFF">
            <g id="Group-8" transform="translate(74.000000, 2522.000000)">
                <g id="VK_Monochrome_Logo">
                    <path d="M39.2307692,0.377622378 L20.979021,0.377622378 C4.32167832,0.377622378 0.377622378,4.32167832 0.377622378,20.979021 L0.377622378,39.2307692 C0.377622378,55.8881119 4.32167832,59.8321678 20.979021,59.8321678 L39.2307692,59.8321678 C55.8881119,59.8321678 59.8321678,55.8881119 59.8321678,39.2307692 L59.8321678,20.979021 C59.8321678,4.32167832 55.8461538,0.377622378 39.2307692,0.377622378 Z M48.3776224,42.7972028 L44.0559441,42.7972028 C42.4195804,42.7972028 41.9160839,41.4965035 38.979021,38.5174825 C36.4195804,36.041958 35.2867133,35.7062937 34.6573427,35.7062937 C33.7762238,35.7062937 33.5244755,35.958042 33.5244755,37.1748252 L33.5244755,41.0769231 C33.5244755,42.1258741 33.1888112,42.7552448 30.4195804,42.7552448 C25.8461538,42.7552448 20.7692308,39.986014 17.2027972,34.8251748 C11.8321678,27.2727273 10.3636364,21.6083916 10.3636364,20.4335664 C10.3636364,19.8041958 10.6153846,19.2167832 11.8321678,19.2167832 L16.1538462,19.2167832 C17.2447552,19.2167832 17.6643357,19.7202797 18.0839161,20.8951049 C20.2237762,27.0629371 23.7902098,32.4755245 25.2587413,32.4755245 C25.8041958,32.4755245 26.0559441,32.2237762 26.0559441,30.8391608 L26.0559441,24.4615385 C25.8881119,21.5244755 24.3356643,21.2727273 24.3356643,20.2237762 C24.3356643,19.7202797 24.7552448,19.2167832 25.4265734,19.2167832 L32.2237762,19.2167832 C33.1468531,19.2167832 33.4825175,19.7202797 33.4825175,20.8111888 L33.4825175,29.4125874 C33.4825175,30.3356643 33.9020979,30.6713287 34.1538462,30.6713287 C34.6993007,30.6713287 35.1608392,30.3356643 36.1678322,29.3286713 C39.2727273,25.8461538 41.4965035,20.4755245 41.4965035,20.4755245 C41.7902098,19.8461538 42.2937063,19.2587413 43.3846154,19.2587413 L47.7062937,19.2587413 C49.006993,19.2587413 49.3006993,19.9300699 49.006993,20.8531469 C48.4615385,23.3706294 43.1748252,30.8391608 43.1748252,30.8391608 C42.7132867,31.5944056 42.5454545,31.9300699 43.1748252,32.7692308 C43.6363636,33.3986014 45.1468531,34.6993007 46.1538462,35.8741259 C48,37.972028 49.4265734,39.7342657 49.8041958,40.951049 C50.2237762,42.1678322 49.5944056,42.7972028 48.3776224,42.7972028 Z" id="Shape"></path>
                </g>
            </g>
        </g>
    </g>
</svg>