<?xml version="1.0" encoding="UTF-8"?>
<svg width="142px" height="49px" viewBox="0 0 142 49" version="1.1" xmlns="http://www.w3.org/2000/svg" xmlns:xlink="http://www.w3.org/1999/xlink">
    <!-- Generator: Sketch 54.1 (76490) - https://sketchapp.com -->
    <title>Logo_hor_color Copy</title>
    <desc>Created with Sketch.</desc>
    <g id="Page-1" stroke="none" stroke-width="1" fill="none" fill-rule="evenodd">
        <g id="M-Landing-FAQ" transform="translate(-20.000000, -40.000000)">
            <g id="Logo_hor_color-Copy" transform="translate(20.000000, 40.000000)">
                <path d="M20.7233346,30.86375 L18.3778393,15.4456522 L14.0688644,15.4456522 L10.3719365,23.832353 L6.67500867,15.4456522 L2.36603384,15.4456522 L0,30.86375 L4.37059029,30.86375 L5.5741457,21.9875215 L9.72292032,30.8880241 L11.0004143,30.8880241 L15.1532966,21.9875215 L16.3856059,30.8677956 L20.7233346,30.86375 Z M32.401519,18.9532593 L31.9907492,19.875675 C31.4897194,19.466783 30.9196772,19.147723 30.3065932,18.9330309 C29.6615687,18.7083856 28.9820891,18.5947959 28.2979291,18.5972392 C27.4261796,18.5899994 26.5612811,18.7493761 25.7511565,19.0665384 C24.999392,19.360895 24.3170867,19.8043078 23.7466001,20.3692483 C23.1768149,20.939541 22.730964,21.6181807 22.4362445,22.36377 C22.1205208,23.1730517 21.9616834,24.0334687 21.967967,24.9004133 C21.9617273,25.7739295 22.1205207,26.6409676 22.4362445,27.4572849 C22.7278045,28.2128139 23.1738032,28.9013177 23.7466001,29.4801264 C24.3154063,30.0500667 24.997936,30.4977578 25.7511565,30.7949734 C26.5610014,31.113519 27.4259094,31.2742714 28.2979291,31.2683183 C28.9703963,31.2715241 29.6385206,31.1620791 30.2737316,30.9446636 C30.8799391,30.7343154 31.4453117,30.4237453 31.9455646,30.0262936 L32.2988266,30.8677956 L35.5151538,30.8677956 L35.5151538,18.9734877 L32.401519,18.9532593 Z M28.8442528,27.6272036 C28.3551401,27.6306472 27.8736355,27.507904 27.4476357,27.2711835 C27.0474318,27.0409831 26.7180864,26.7082209 26.4946498,26.3083109 C26.0265356,25.4377768 26.0265356,24.3954152 26.4946498,23.5248811 C26.7193369,23.1269402 27.048477,22.7957827 27.4476357,22.5660542 C27.8741824,22.3270326 28.357644,22.2041519 28.8483605,22.2100341 C29.3364672,22.2042233 29.8172627,22.3271473 30.24087,22.5660542 C30.6409138,22.7946633 30.970324,23.1260925 31.1938559,23.5248811 C31.6700436,24.3934225 31.6700436,25.4397695 31.1938559,26.3083109 C30.9715987,26.7090805 30.6419765,27.0421223 30.24087,27.2711835 C29.8165158,27.5082805 29.3362259,27.6310752 28.8483605,27.6272036 L28.8442528,27.6272036 Z M45.1805664,18.5810565 C44.492636,18.5782266 43.8096877,18.6960409 43.1636868,18.9289852 C42.54621,19.1555247 41.9745562,19.4884071 41.4754231,19.9120862 L40.9537455,18.969442 L38.1235418,18.969442 L38.1235418,35.1521739 L42.2312395,35.1521739 L42.2312395,30.4753644 C42.6629412,30.7329482 43.1288035,30.9303673 43.6155336,31.0619884 C44.1241288,31.1992229 44.6491219,31.2686188 45.1764587,31.2683183 C46.0496539,31.2725624 46.9155779,31.1118803 47.7273389,30.7949734 C48.480793,30.5004521 49.1625148,30.0523727 49.7277877,29.4801264 C50.3014199,28.9011881 50.7487438,28.2127966 51.0422509,27.4572849 C51.6666537,25.8095638 51.6666537,23.9953084 51.0422509,22.3475873 C50.7476094,21.59264 50.3004244,20.9044622 49.7277877,20.3247458 C49.159713,19.7578195 48.478597,19.3128933 47.7273389,19.0179902 C46.9158742,18.7005112 46.0495697,18.5411324 45.1764587,18.548691 L45.1805664,18.5810565 Z M44.6260272,27.6393406 C44.1362508,27.6438579 43.6541237,27.5195593 43.22941,27.2792749 C42.8292061,27.0490744 42.4998607,26.7163123 42.2764241,26.3164023 C41.805382,25.4394257 41.805382,24.3897207 42.2764241,23.512744 C42.5011112,23.1148032 42.8302514,22.7836457 43.22941,22.5539171 C44.0952205,22.073806 45.1527262,22.073806 46.0185367,22.5539171 C46.4188316,22.7835472 46.7493271,23.1146412 46.9756302,23.512744 C47.4466724,24.3897207 47.4466724,25.4394257 46.9756302,26.3164023 C46.7467109,26.7149773 46.4151758,27.0470889 46.014429,27.2792749 C45.5925053,27.5190794 45.1131467,27.6433955 44.6260272,27.6393406 L44.6260272,27.6393406 Z M60.4776324,18.5810565 C59.789702,18.5782266 59.1067537,18.6960409 58.4607529,18.9289852 C57.8432761,19.1555247 57.2716223,19.4884071 56.7724891,19.9120862 L56.2508115,18.969442 L53.4206078,18.969442 L53.4206078,35.1521739 L57.5283055,35.1521739 L57.5283055,30.4753644 C57.9603902,30.7322149 58.4261468,30.9295891 58.9125996,31.0619884 C59.4211948,31.1992229 59.9461879,31.2686188 60.4735247,31.2683183 C61.34672,31.2725624 62.2126439,31.1118803 63.0244049,30.7949734 C63.777859,30.5004521 64.4595808,30.0523727 65.0248537,29.4801264 C65.5984859,28.9011881 66.0458098,28.2127966 66.3393169,27.4572849 C66.9637198,25.8095638 66.9637198,23.9953084 66.3393169,22.3475873 C66.0446754,21.59264 65.5974904,20.9044622 65.0248537,20.3247458 C64.456779,19.7578195 63.775663,19.3128933 63.0244049,19.0179902 C62.2129402,18.7005112 61.3466357,18.5411324 60.4735247,18.548691 L60.4776324,18.5810565 Z M59.9230932,27.6393406 C59.4346081,27.6439217 58.9537878,27.5195944 58.5305837,27.2792749 C58.1292499,27.0491693 57.7985504,26.7164729 57.5734902,26.3164023 C57.102448,25.4394257 57.102448,24.3897207 57.5734902,23.512744 C57.7997933,23.1146412 58.1302888,22.7835472 58.5305837,22.5539171 C59.3949107,22.0737307 60.4512757,22.0737307 61.3156027,22.5539171 C61.7158976,22.7835472 62.0463931,23.1146412 62.2726963,23.512744 C62.7437384,24.3897207 62.7437384,25.4394257 62.2726963,26.3164023 C62.0453808,26.7148127 61.7152033,27.0469838 61.3156027,27.2792749 C60.8921697,27.5190453 60.4115038,27.6433327 59.9230932,27.6393406 Z" id="Shape" fill="#FFFFFF" fill-rule="nonzero"></path>
                <path d="M119.125124,22.509339 L119.125124,25.1983186 L122.994413,25.1983186 C122.825494,25.6020526 122.562165,25.9599203 122.226275,26.2422276 C121.867062,26.5498987 121.45061,26.7845055 121.000523,26.932751 C120.506944,27.0984231 119.989285,27.1821358 119.468334,27.1805271 C118.752319,27.1919699 118.046489,27.0109326 117.425415,26.6565416 C116.845199,26.3130602 116.374842,25.8130646 116.068917,25.2145662 C115.734013,24.5435976 115.565876,23.802559 115.578616,23.0536339 C115.56865,22.3006305 115.738061,21.5559694 116.073003,20.880516 C116.379502,20.2776759 116.853003,19.774533 117.437673,19.4304167 C118.05865,19.0753574 118.764295,18.8929646 119.480592,18.9023694 C119.992457,18.9026835 120.50019,18.9934576 120.980094,19.170455 C121.43288,19.3377248 121.849038,19.5900939 122.205846,19.9137832 C122.557512,20.2283067 122.836319,20.6149641 123.023013,21.047054 L127.517435,21.047054 C127.355085,20.1689811 127.026482,19.3295448 126.549092,18.5733553 C126.075299,17.824213 125.470618,17.1652996 124.76358,16.6277039 C124.022378,16.0746274 123.193945,15.6477383 122.312078,15.3644521 C121.379677,15.0613648 120.404358,14.9091354 119.42339,14.9135809 C118.288608,14.9010851 117.162079,15.1065895 116.105689,15.5188044 C115.1288,15.9032896 114.240583,16.4809106 113.494839,17.2166798 C112.751232,17.9505889 112.16715,18.8284916 111.778787,19.795988 C111.366478,20.8299831 111.158395,21.9332593 111.165911,23.0455101 C111.158722,24.1584984 111.369666,25.2622231 111.786958,26.2950323 C112.182751,27.2611704 112.773769,28.1362829 113.523439,28.8662167 C114.27574,29.5986483 115.169426,30.1720653 116.150633,30.5519063 C117.205489,30.9595281 118.328447,31.1648868 119.460162,31.1571298 C120.605028,31.1692566 121.740523,30.9509491 122.798292,30.5153492 C123.781943,30.1094116 124.666649,29.4985931 125.3928,28.7240501 C126.131636,27.9319058 126.701483,26.9992389 127.067993,25.9822658 C127.470749,24.8628881 127.672659,23.6818969 127.664526,22.4930914 L119.125124,22.509339 Z" id="Path" fill="#FFFFFF" fill-rule="nonzero"></path>
                <path d="M135.647597,18.6413077 C137.332257,18.6397594 138.947977,19.3002915 140.136696,20.4765221 L140.136696,20.4765221 C141.329561,21.6484416 142,23.2399738 142,24.8997549 C142,26.5595361 141.329561,28.1510682 140.136696,29.3229877 L140.136696,29.3229877 C138.94608,30.497597 137.330367,31.1576087 135.645533,31.1576087 C133.960698,31.1576087 132.344985,30.497597 131.154369,29.3229877 L131.154369,29.3229877 C129.959467,28.1521369 129.287619,26.5602044 129.287619,24.8997549 C129.287619,23.2393055 129.959467,21.647373 131.154369,20.4765221 L131.154369,20.4765221 C132.344616,19.3000542 133.961689,18.639577 135.647597,18.6413077 L135.647597,18.6413077 Z M137.530789,23.0523329 C136.485128,22.0607956 134.826351,22.0764691 133.800181,23.0875827 C132.774011,24.0986963 132.758104,25.7331357 133.764406,26.7634537 C134.810067,27.7549911 136.468844,27.7393176 137.495014,26.728204 C138.521184,25.7170904 138.537091,24.082651 137.530789,23.0523329 L137.530789,23.0523329 Z" id="Shape" fill="#FFFFFF" fill-rule="nonzero"></path>
                <path d="M60.5866667,45.1919606 L70.86886,30.2982744 L73.5572294,33.3731782 L63.8651659,47.4021739 L60.5866667,45.1919606 Z M73.1965945,26.9526499 L75.8849639,30.0315942 L82.5608081,20.3704972 L91.3799711,33.2560005 L93.0192208,35.6561225 L94.6584704,33.2560005 L101.973622,22.6494009 L99.2893506,19.5785378 L93.0438095,28.6497058 L84.2205483,15.7642025 L82.5812987,13.3640806 L80.9420491,15.7561213 L73.1965945,26.9526499 Z M101.604791,16.204629 L111.673882,1.59782609 L114.952381,3.79591758 L104.297258,19.2754921 L101.604791,16.204629 Z" id="Shape" fill="#FFFFFF" fill-rule="nonzero"></path>
                <path d="M82.4952381,12.5163043 C84.8853161,12.5163043 86.8228571,14.4239606 86.8228571,16.7771739 C86.8228571,19.1303872 84.8853161,21.0380435 82.4952381,21.0380435 C80.1051601,21.0380435 78.167619,19.1303872 78.167619,16.7771739 C78.169855,14.4248731 80.1060869,12.5185058 82.4952381,12.5163043 L82.4952381,12.5163043 Z" id="Path" fill="#FFFFFF"></path>
                <path d="M82.3618345,10.4019757 C84.9301417,10.3991633 87.2470425,11.9204235 88.2313579,14.2558617 C89.2156733,16.5913 88.6733784,19.280563 86.8575346,21.0687093 L86.8575346,21.0687093 C85.2513756,22.6499778 82.9103479,23.2675335 80.716294,22.6887491 C78.52224,22.1099647 76.8084888,20.4227713 76.2205938,18.2627185 C75.6326989,16.1026656 76.2599754,13.7979166 77.8661344,12.2166482 L77.8661344,12.2166482 C79.0574549,11.0416091 80.6754892,10.3827029 82.3618345,10.385881 L82.3618345,10.4019757 Z M84.0415915,15.0010238 C83.1127343,14.0942463 81.6150217,14.0942463 80.6861645,15.0010238 L80.6861645,15.0010238 C80.0057933,15.6707337 79.8022109,16.6780041 80.1703537,17.553115 C80.5384966,18.4282259 81.4058593,18.998825 82.367965,18.998825 C83.3300707,18.998825 84.1974334,18.4282259 84.5655763,17.553115 C84.9337191,16.6780041 84.7301367,15.6707337 84.0497655,15.0010238 L84.0415915,15.0010238 Z" id="Shape" fill="#000000" fill-rule="nonzero"></path>
                <ellipse id="Oval" fill="#FFFFFF" fill-rule="nonzero" cx="92.7733333" cy="31.9565217" rx="4.32761905" ry="4.26086957"></ellipse>
                <path d="M92.9103335,25.8476188 C95.4786699,25.8448065 97.7955972,27.3660851 98.7799238,29.7015517 C99.7642504,32.0370183 99.2219493,34.726314 97.4060848,36.5144819 L97.4060848,36.5144819 C94.9231499,38.9589408 90.897517,38.9589408 88.4145821,36.5144819 C85.9316472,34.0700231 85.9316472,30.1067722 88.4145821,27.6623134 L88.4145821,27.6623134 C89.6069384,26.4887663 91.2243263,25.830123 92.9103335,25.831524 L92.9103335,25.8476188 Z M94.5901096,30.4507465 C93.6630892,29.5395515 92.1616647,29.5395515 91.2346443,30.4507465 L91.2346443,30.4507465 C90.327736,31.3697173 90.3393714,32.8356204 91.2607564,33.7405258 C92.1821414,34.6454311 93.6711419,34.6533238 94.6023708,33.7582386 C95.0455905,33.3169033 95.2938338,32.7210966 95.2930817,32.1004688 C95.2926369,31.4808618 95.0410732,30.8870441 94.5941967,30.4507465 L94.5901096,30.4507465 Z" id="Shape" fill="#000000" fill-rule="nonzero"></path>
                <path d="M110.878969,2.13046487 C112.631131,2.12400439 114.21434,3.15844248 114.889036,4.75056517 C115.563733,6.34268787 115.196754,8.17826237 113.959525,9.39984226 C112.722296,10.6214221 110.859006,10.9879076 109.240048,10.3281034 C107.62109,9.66829921 106.565993,8.11242903 106.567621,6.38728187 C106.567612,4.04097285 108.495912,2.1370618 110.878969,2.13046487 L110.878969,2.13046487 Z" id="Path" fill="#FFFFFF"></path>
                <path d="M110.758151,1.3483771e-05 C113.327947,-0.00280182237 115.646191,1.5200747 116.631077,3.85799449 C117.615963,6.19591428 117.073354,8.88803475 115.256457,10.678081 L115.256457,10.678081 C112.777757,13.1251075 108.754414,13.1296159 106.270068,10.6881509 C103.785722,8.24668579 103.781144,4.28378038 106.259844,1.83675388 L106.259844,1.83675388 C107.45041,0.657852117 109.069969,-0.00344322845 110.758151,1.3483771e-05 L110.758151,1.3483771e-05 Z M112.438881,4.60797623 C111.509932,3.69536113 110.006369,3.69536113 109.07742,4.60797623 L109.07742,4.60797623 C108.403355,5.28012089 108.204798,6.28513027 108.573777,7.15720113 C108.942756,8.02927199 109.807151,8.59795032 110.766329,8.59966425 C111.3978,8.60399125 112.004681,8.35882145 112.451209,7.91900118 C112.897737,7.47918091 113.146646,6.88141615 113.142253,6.25943142 C113.140727,5.63859153 112.887513,5.04406738 112.438881,4.60797623 L112.438881,4.60797623 Z" id="Shape" fill="#000000" fill-rule="nonzero"></path>
                <path d="M64.6479229,46.8695633 C62.8968536,46.8711769 61.3173704,45.8336563 60.6465079,44.2411402 C59.9756455,42.648624 60.3456352,40.8150078 61.5838287,39.5959122 C62.8220223,38.3768166 64.6843633,38.0125337 66.3018274,38.6730487 C67.9192915,39.3335638 68.9730655,40.8886849 68.9714267,42.6127456 C68.9714267,44.9637211 67.0357281,46.8695633 64.6479229,46.8695633 Z" id="Path" fill="#FFFFFF"></path>
                <path d="M64.4921892,49 C62.8087517,48.9930289 61.1976295,48.3265105 60.0157387,47.1481004 L60.0157387,47.1481004 C58.8227663,45.9775346 58.152381,44.3886422 58.152381,42.7317225 C58.152381,41.0748028 58.8227663,39.4859104 60.0157387,38.3153446 L60.0157387,38.3153446 C61.206569,37.142673 62.8229677,36.4836957 64.5085714,36.4836957 C66.1941752,36.4836957 67.8105739,37.142673 69.0014041,38.3153446 L69.0014041,38.3153446 C70.1943766,39.4859104 70.8647619,41.0748028 70.8647619,42.7317225 C70.8647619,44.3886422 70.1943766,45.9775346 69.0014041,47.1481004 L69.0014041,47.1481004 C67.8098137,48.327537 66.1872947,48.988699 64.4962847,48.9838965 L64.4921892,49 Z M62.8048172,44.3984321 C63.6094356,45.1983929 64.8772567,45.3273122 65.8314249,44.7061948 C66.7855931,44.0850774 67.1596772,42.8873571 66.7244578,41.8469354 C66.2892384,40.8065138 65.166241,40.2139062 64.043581,40.4322323 C62.9209209,40.6505583 62.1120769,41.6188551 62.112667,42.7438001 C62.1112085,43.3637118 62.3601567,43.9588394 62.8048172,44.3984321 Z" id="Shape" fill="#000000" fill-rule="nonzero"></path>
            </g>
        </g>
    </g>
</svg>